<?xml version="1.0" encoding="utf-8"?>
<!-- Generator: Adobe Illustrator 23.1.1, SVG Export Plug-In . SVG Version: 6.00 Build 0)  -->
<svg version="1.1" id="Layer_1" xmlns="http://www.w3.org/2000/svg" xmlns:xlink="http://www.w3.org/1999/xlink" x="0px" y="0px"
	 viewBox="0 0 64 64" style="enable-background:new 0 0 64 64;" xml:space="preserve">
<style type="text/css">
	.st0{stroke:#666667;stroke-width:0.5;stroke-miterlimit:10;}
	.st1{fill:#FFFFFF;stroke:#666667;stroke-width:0.25;stroke-miterlimit:10;}
	.st2{fill:#EEE2CA;}
	.st3{fill:#EEE2CA;stroke:#666667;stroke-width:0.5;stroke-miterlimit:10;}
	.st4{fill:none;stroke:#CCAA87;stroke-width:0.25;stroke-miterlimit:10;}
	.st5{fill:none;stroke:#D5C7B1;stroke-width:0.25;stroke-miterlimit:10;}
	.st6{fill:none;stroke:#000000;stroke-width:0.5;stroke-miterlimit:10;}
	.st7{fill:#FFFFFF;stroke:#231F20;stroke-width:0.75;stroke-miterlimit:10;}
	.st8{fill:#346733;stroke:#231F20;stroke-width:0.75;stroke-miterlimit:10;}
	.st9{fill:#FFFFFF;}
</style>
<path id="hair_front_1_" class="st0" d="M-13.49,5.96C3.61,25.2,21.17-9.33,30.58,5.14c24-16.77,23.68,25.81,38.8,19.89
	c-4.77,12.66-10.52,11.7-10.52,11.7s4.77,9.35,11.18,10.99c-6.41,8.24-13.98,4.77-13.98,4.77s1.97,7.46,10.69,12
	c-9.04,2.55-15.12-11.18-23.91-7.23c-0.81-2.17-1.58-1.81-1.58-1.81l-16.6-1.2c0,0-1.48,0.54-4.55,3.74
	c-4.67-8.46-19.96,6.5-19.96,6.5s7.73-8.71,5.59-15.29c-2.63,3.95-10.36,0.66-15.95,5.1c6.08-5.59,8.88-22.52,8.88-22.52
	s-14.14,3.12-14.96-0.66c4.77-1.81,13.32-4.44,17.1-12.99C-3.79,17.63-10.36,15.5-13.49,5.96z"/>
<g id="hair_streaks">
	<path class="st1" d="M14.59,30.83c-8.02-10.16,0.14,14.6-14.76,12.12c7.15,6.17,13.4-6.14,15.34-2.97
		c1.43,2.4-0.77,10.86-3.99,14.56c5.04,0.9,6.65-10.07,6.65-10.07S15.44,40.93,14.59,30.83z"/>
	<path class="st1" d="M51.32,30.83c2.92-4.02,4.08,9.82,9.67,13.11c-4.19,0.08-4.98-6.01-9.83-6.01c3.19,7.5,5.72,7.98,8.51,9.71
		c-2.22,0.33-6.17,1.01-10.18-4.53c1.83,3.5,2.11,10.38,5.16,12.86c-1.89,1.3-6.95-9.52-6.95-9.52S50.98,40.22,51.32,30.83z"/>
</g>
<path id="left_ear_1_" class="st2" d="M14.39,31.24c-2.23-0.61,2.54,17.42,4.15,15.34C17.31,43.07,16.78,39.01,14.39,31.24z"/>
<path id="right_ear_1_" class="st2" d="M51.87,31.09c2.23-0.61-2.54,17.42-4.15,15.34C48.94,42.92,49.48,38.86,51.87,31.09z"/>
<g id="face">
	<path class="st3" d="M32.53,16.15c2.96-0.19,4.21-1.88,6.64-2.47c4.89-1.19,6.95,1.87,9.82,7.18c2.57,4.74,2.07,11.11,1.64,15.02
		c-0.11,1.05-0.75,6.41-4.11,12.33c-1.42,2.51-3.09,4.36-6.41,8.06c-2.02,2.25-4.62,3.31-6.36,3.62c-1.25,0.45-7.7-3.35-11.89-9.04
		c-1.45-1.97-3.31-4.53-4.93-8.39c-1.04-2.47-2.17-7.52-2.33-13.45c-0.11-4.19,0.5-6.74,2.49-9.73c0.53-0.79,2.52-5,5.92-5.43
		C25.81,13.5,29.33,16.36,32.53,16.15z"/>
	<path class="st4" d="M38.89,45.07c0,0,8.77-5.12,8.33-6.45"/>
	<path class="st4" d="M39.18,45.69c0,0,2.82-1.97,3.83-1.84"/>
	<path class="st4" d="M39.78,46.65c0,0,5.64-2.59,7.12-1.73"/>
	<path class="st4" d="M39.95,47.28c2.91-1.07,5.12-0.3,5.12-0.3"/>
	<path class="st5" d="M33.27,45.37c0.22,1.4-0.16,2.52-0.16,2.52"/>
	<path class="st5" d="M34.18,44.6c-0.41,0.38-0.11,2.71-0.11,2.71"/>
	<path class="st6" d="M28.28,49.5c0,0,2.85-1.23,3.84-0.69c1.34,1.55,2.92-0.52,3.94,0s2.58,0.88,2.58,0.88"/>
	<path class="st6" d="M29.56,51.3c1.57,1.5,3.35,1.6,3.86,1.7s3.27-1.05,3.16-1.57"/>
	<path class="st6" d="M31.44,32.08c0.41,4.4,6.7,9.62,5.31,12.21c-0.67,1.35-5.39-2.06-6.43-0.46"/>
	<path class="st6" d="M30.82,29.92c-2.01-3.66-14.54-1.97-14.71-4.85"/>
	<path class="st6" d="M35.2,29.92c2.01-3.66,14.54-1.97,14.71-4.85"/>
</g>
<path id="left_side_burn_1_" d="M14.46,28.76c0.35,1.3,1.54,11.5,6.25,13.81c0.35,0.17,1.38,1.6,1.32,1.86
	c-0.1,0.39-4.67-2.55-4.85-1.24C15.11,41.45,14.14,28.85,14.46,28.76z"/>
<path id="right_side_burn_1_" d="M51.27,29.72c-0.35,1.3-1.54,11.5-6.25,13.81c-0.35,0.17-1.38,1.6-1.32,1.86
	c0.1,0.39,4.67-2.55,4.85-1.24C50.63,42.42,51.6,29.81,51.27,29.72z"/>
<g id="left_eye_1_">
	<path class="st7" d="M17.83,32.74c5.19,10,10.75,4.79,12.99,2.31C28.4,33.67,27.73,27.88,17.83,32.74z"/>
	<circle id="iris" class="st8" cx="24.39" cy="34.74" r="3.6"/>
	<ellipse id="pupil" cx="24.42" cy="34.74" rx="2.26" ry="3.6"/>
	<ellipse id="fleck1" class="st9" cx="25.64" cy="35.31" rx="0.25" ry="0.58"/>
	<ellipse id="fleck2" class="st9" cx="25.15" cy="36.7" rx="0.25" ry="0.58"/>
</g>
<g id="right_eye_1_">
	<path class="st7" d="M48.04,32.82c-5.19,10-10.75,4.79-12.99,2.31C37.46,33.74,38.13,27.96,48.04,32.82z"/>
	<circle id="iris_1_" class="st8" cx="41.47" cy="34.82" r="3.6"/>
	<ellipse id="pupil_1_" cx="41.44" cy="34.82" rx="2.26" ry="3.6"/>
	<ellipse id="fleck1_1_" class="st9" cx="42.56" cy="35.43" rx="0.25" ry="0.58"/>
	<ellipse id="fleck2_1_" class="st9" cx="42.06" cy="36.81" rx="0.25" ry="0.58"/>
</g>
</svg>
